<?xml version="1.0" encoding="utf-8"?>
<!-- Generator: Adobe Illustrator 21.1.0, SVG Export Plug-In . SVG Version: 6.00 Build 0)  -->
<svg version="1.1" id="Layer_1" xmlns="http://www.w3.org/2000/svg" xmlns:xlink="http://www.w3.org/1999/xlink" x="0px" y="0px"
	 width="1000px" height="1000px" viewBox="0 0 1000 1000" style="enable-background:new 0 0 1000 1000;" xml:space="preserve">
<style type="text/css">
	.st0{fill:#983503;}
	.st1{fill:#2166C9;}
	.st2{fill:#2468C9;}
	.st3{fill:none;stroke:#414C4F;stroke-width:3;stroke-miterlimit:10;}
</style>
<g>
	<path class="st1" d="M181.9,736.3c1.2-6.7,1.2-13.6,2.9-20.3c0.8-3.2,1.8-6.4,3.1-9.3c3.7-8.1,10-13.2,18.7-15.1
		c8.9-2,17.9-1.8,26.8,0.6c1.8,0.5,3.5,1,5,2.1c0,4.2,0,8.5,0,12.6c-1.1,0.4-2-0.4-2.9-0.7c-7.7-3.1-15.5-4-23.6-2.2
		c-4.7,1.1-8.2,3.9-10.3,8.2c-2.4,4.7-3.2,9.8-3.6,14.9c-1.1,11.4-1,22.8,0,34.1c0.4,3.7,0.8,7.5,2.1,11.1c2.5,7.5,6.7,10.7,14.6,11
		c4.3,0.1,8.7,0,13-1.5c0-11.1,0-22.2,0-33.7c-4.9-0.1-9.6,0-14.6-0.1c-0.6-2-0.3-4-0.4-6c-0.1-2,0-4,0-6.4c9.8-0.3,19.4,0,29.3-0.1
		c0,18.5,0,36.8,0,55.1c-0.1,0.4-0.6,0.6-1.1,0.7c-11.8,4.3-23.9,5.8-36.2,3.2c-8.9-1.8-14.7-7.3-18-15.8
		c-2.2-5.7-3.1-11.7-3.7-17.8c-0.3-2.2-0.1-4.6-1.1-6.5C181.9,748.6,181.9,742.5,181.9,736.3z"/>
	<path class="st1" d="M208.8,940c-0.6-0.7-1.5-0.5-2.2-0.6c-11-1.8-17.5-8.3-19.7-19.1c-0.8-3.9-1.2-7.8-1.2-11.8
		c0-23.2,0-46.4,0-69.7c0-0.7-0.1-1.7,0.4-2.5c4.4,0,9.2,0,13.6,0c0.6,1.1,0.4,2.2,0.4,3.3c0,22.3,0,44.7,0,67c0,3.3,0.1,6.7,0.8,10
		c1.5,6.7,4.7,9.7,11.4,10.7c3.2,0.5,6.4,0.3,9.4-0.5c5.7-1.5,8.1-5.8,8.9-11.1c0.4-2.5,0.6-5,0.6-7.5c0-22.8,0-45.7,0-68.5
		c0-1.1,0-2.1,0-3.6c4.9-0.1,9.6-0.1,14,0c0.5,0.8,0.5,1.5,0.5,2c0,24,0,48.3-0.1,72.3c0,4.3-0.6,8.6-2,12.6
		c-2.9,9.6-9.7,14.6-19.3,16.2c-1.7,0.3-3.2,0.7-5,0.6C215.9,940,212.4,940,208.8,940z"/>
	<path class="st1" d="M601.9,940c-1.4-1-2.9-0.6-4.4-1.1c-2.2-0.6-4.6-1.1-6.7-2.5c0-4.2,0-8.5,0-12.8c0.8-0.3,1.5,0.5,2.1,0.7
		c6.7,3.1,13.6,4,20.8,2.5c6.8-1.4,10-5.7,10.3-12.6c0.1-5.7-1.8-10.4-5.8-14.4c-3.9-3.9-8.1-7.1-12.1-10.7
		c-2.6-2.2-5.3-4.6-7.6-7.1c-8.6-9.2-10-20-6.4-31.5c2.5-7.7,8.3-12.4,16-14.7c8.5-2.6,16.9-2.2,25.2,0.5c1,0.4,2.1,0.6,3.1,1.5
		c0,4,0,8.2,0,12.4c-0.7,0.5-1.2-0.3-1.8-0.5c-6.4-3.1-13.3-4.1-20.3-2.1c-5.8,1.7-8.9,5.6-9.3,11.7c-0.4,5.4,1.2,10.1,5,14.2
		c2.9,3.1,6.1,5.7,9.2,8.5c3.6,3.1,7.2,6.2,10.7,9.6c8.6,8.7,10.7,19,7.7,30.4c-2.1,8.3-7.8,13.5-15.8,16.4c-2.9,1-6,1.5-8.9,1.8
		C609.1,940,605.5,940,601.9,940z"/>
	<path class="st2" d="M324.9,938.1c-5.4,0-10.8,0-16.5,0c-10.4-26.1-20.8-52.1-31.1-78.3c-0.7,2.8,0,5.3,0.3,7.8c0.5,5,1,10,1,14.9
		c0,17.6,0,35.1,0,52.7c0,0.8,0.3,1.8-0.4,2.9c-4.3,0-8.8,0-13.2,0c-0.6-2-0.7-97.9-0.1-101.7c5.3,0,10.8,0,16.5,0
		c10.4,26.2,20.7,52.5,31.1,78.8c0.1,0,0.3-0.1,0.5-0.1c-0.3-1.8-0.4-3.9-0.6-5.7c-1-8.7-1.1-17.4-1.1-26.2c0-14.6,0-29,0-43.4
		c0-1.1,0-2.1,0-3.3c4.7,0,9,0,13.5,0C325.4,838.3,325.7,934.2,324.9,938.1z"/>
	<path class="st1" d="M453,770.6c-1.1-5.3-1.5-10.8-1.7-16.2c-0.3-13.6-0.1-27.2-0.3-40.8c0-6.1,0-12.2,0-18.2c0-1-0.1-2,0.3-3.1
		c4.3,0,8.8,0,13.4,0c0,33.9,0,67.6,0,101.6c-5.4,0-10.8,0-16.6,0c-10.3-25.8-20.6-51.8-30.9-77.9c-0.7,1.2-0.5,2.5-0.4,3.7
		c1,7.3,1.4,14.6,1.4,21.9c0,16.2,0,32.5,0,48.7c0,1.1,0.1,2.1-0.3,3.3c-4.4,0-8.9,0-13.5,0c0-33.9,0-67.6,0-101.6
		c2.8-0.5,5.4-0.1,8.2-0.3c2.8,0,5.3,0,7.8,0c1,0.5,1,1.2,1.2,1.8c9.8,24.8,19.7,49.8,29.6,74.7c0.3,0.5,0.4,1.1,0.5,1.8
		c0.1,0.7,0.4,1.4,0.8,1.8C453.2,771.7,453.1,771,453,770.6z"/>
	<path class="st1" d="M308.6,387.2c40.9,14.6,81.9,29,122.8,43.6c0,5.1,0,10,0,14.9c-1.5,0.3-2.6-0.5-3.9-0.8
		c-38.8-13.7-77.5-27.5-116.2-41.3c-1.8-0.6-3.5-0.7-5.4,0c-38.7,13.8-77.6,27.5-116.3,41.2c-1.2,0.4-2.4,0.7-3.9,1.2
		c0-5.1,0-10,0-15.3C226.6,416.2,267.5,401.8,308.6,387.2z"/>
	<path class="st1" d="M556.5,894c7.2,14.6,14.3,29.2,21.5,43.9c-5.7,0-11,0-16.6,0c-6.4-13.5-12.6-27.5-19.1-41.4
		c-3.2,0-6.2,0-9.6,0c0,13.8,0,27.5,0,41.2c-5,0-9.7,0-14.6,0c0-33.9,0-67.6,0-101.5c0.4-0.4,0.8-0.5,1.4-0.5
		c9.2,0.1,18.5-0.3,27.6,0.3c3.5,0.3,6.9,0.8,10.1,2c7.9,2.8,13.2,8.3,15.3,16.5c1.8,6.5,1.8,13.4,0.5,20.1
		c-1.8,8.2-6.4,14.2-14,17.9c-0.5,0.3-0.8,0.4-1.4,0.6C557.6,893.5,557.2,893.7,556.5,894z M533.2,848.4c-0.6,3.6-0.5,33.6,0.1,35.7
		c4.3,0.1,8.7,0.3,13-0.3c6.4-0.7,10.4-4,11.9-10c1.2-5.1,1.2-10.3,0-15.4c-1.2-5.1-4.3-8.3-9.6-9.4
		C543.6,848.1,538.3,848.4,533.2,848.4z"/>
	<path class="st1" d="M185.8,634.3c0-4.9,0-9.3,0-14c81.9,0,163.7,0,245.6,0c0,4.6,0,9.2,0,14C349.6,634.3,267.8,634.3,185.8,634.3z
		"/>
	<path class="st2" d="M319.3,794.1c-4.9,0-9.4,0-14.3,0c0-15.3,0-30.4,0-45.4c-2.4-0.7-24.4-1-30.9-0.4c-0.3,7.6,0,15.1-0.1,22.7
		c0,7.6,0,15.3,0,23.3c-2.6,0-5,0-7.2,0c-2.4,0-4.7,0-7.1,0c-0.5-2.6-0.6-98.3-0.1-101.9c4.7,0,9.3,0,14.4,0c0,14.4,0,28.6,0,43
		c10.3,0,20.4,0,30.9,0c0.1-14.4,0-28.7,0-43c5,0,9.6,0,14.4,0C319.3,726.1,319.3,760,319.3,794.1z"/>
	<path class="st2" d="M417.1,605.5c-72.5,0-144.7,0-216.7,0c-0.5-0.6-0.5-1.1-0.5-1.7c0-4.1,0-8.3,0-12.4
		c2.4-0.6,213.8-0.7,217.2-0.1C417.1,596.1,417.1,600.7,417.1,605.5z"/>
	<path class="st2" d="M416.3,454.2c-4.7,4.7-9.4,9.4-14.3,14.3c-62,0-124.6,0-186.8,0c-4.9-4.9-9.4-9.6-14.2-14.3
		C272.6,454.2,344.5,454.2,416.3,454.2z"/>
	<path class="st1" d="M373.4,836.2c5.3,0,10,0,15.1,0c3.3,13.6,6.5,27.3,10,40.9c3.3,13.6,6.2,27.3,8.5,41.2
		c4.4-27.8,12.6-54.7,18.6-82.2c5,0,9.7,0,14.7,0c-8.7,34.1-17.2,67.9-25.8,101.9c-5.1,0-10,0-15.3,0
		C390.6,904.2,382.1,870.3,373.4,836.2z"/>
	<path class="st2" d="M494.9,891.6c-8.8,0-17.5,0-26.2,0c-0.6,2.4-0.8,28.6-0.4,34c10.8,0,21.7,0,32.8,0c0,4.2,0,8.2,0,12.3
		c-15.8,0-31.4,0-47.5,0c0-33.9,0-67.7,0-101.9c15.8,0,31.5,0,47.5,0c0,4.1,0,7.9,0,12.2c-11,0-21.8,0-32.9,0c0,10.4,0,20.5,0,31
		c2.9,0.3,5.8,0.1,8.8,0.1c2.9,0,5.7,0,8.7,0s6,0,9,0C494.9,883.6,494.9,887.6,494.9,891.6z"/>
	<path class="st2" d="M340.1,794c0-34.1,0-67.7,0-101.6c15.8,0,31.6,0,47.5,0c0,3.9,0,7.8,0,12.1c-11,0-21.7,0-32.8,0
		c0,10.5,0,20.7,0,31.1c8.7,0,17.4,0,26.1,0c0.7,2.5,0.7,9.2,0.1,12.2c-8.7,0-17.4,0-26.2,0c0,11.4,0,22.6,0,34
		c11.1,0,21.8,0,32.9,0c0,4.2,0,8.2,0,12.3C371.7,794,355.9,794,340.1,794z"/>
	<path class="st2" d="M802.8,836.2c5.3,0,10.1,0,15.3,0c0,1.2-0.6,2-1,2.9c-8.5,18.2-16.8,36.1-25.2,54.3c-0.8,1.8-1.1,3.5-1.1,5.4
		c0,11.9,0,23.9,0,35.7c0,1.1,0,2.1,0,3.5c-4.9,0-9.6,0-14.3,0c-0.6-1-0.4-2.1-0.4-3.1c0-11.7-0.1-23.5,0-35.1c0-2.6-0.5-5-1.7-7.5
		c-8.2-17.2-16.2-34.6-24.3-52c-0.6-1.2-1.4-2.4-1.7-4c5.3,0,10.3,0,15.8,0c6.4,15.3,14,30,19.1,46.6
		C788.9,866.6,796.3,851.6,802.8,836.2z"/>
	<path class="st2" d="M705.9,848.4c-7.5,0-14.6,0-21.7,0c0-4.2,0-8.2,0-12.3c19.4,0,38.7,0,58.2,0c0,4,0,7.9,0,12.2
		c-7.2,0-14.4,0-21.8,0c0,30,0,59.8,0,89.7c-5,0-9.6,0-14.6,0c0-3.7,0-7.5,0-11.1c0-3.7,0-7.3,0-11.1s0-7.6,0-11.3
		c0-3.8,0-7.6,0-11.3c0-3.7,0-7.3,0-11.1s0-7.6,0-11.3c0-3.7,0-7.3,0-11.1C705.9,856.2,705.9,852.5,705.9,848.4z"/>
	<path class="st1" d="M536.6,692.4c0,4.1,0,7.8,0,12.1c-7.3,0-14.6,0-21.9,0c0,30,0,59.6,0,89.2c-2.4,0.6-11.1,0.7-14.6,0.3
		c0-29.6,0-59.2,0-89.1c-3.9-0.5-7.5-0.1-11.1-0.3c-3.6,0-7.1,0-10.8,0c0-4.1,0-7.9,0-11.8C480.3,692.1,530.9,691.7,536.6,692.4z"/>
	<path class="st2" d="M670.2,938.1c-4.9,0-9.6,0-14.3,0c0-34,0-67.7,0-101.5c2.1-0.6,10.1-0.7,14.3-0.3
		C670.2,870.2,670.2,903.9,670.2,938.1z"/>
	<path class="st1" d="M359.9,938.1c-4.9,0-9.4,0-14.2,0c0-34,0-67.7,0-101.5c2.2-0.6,11.4-0.7,14.2-0.1
		C359.9,870.2,359.9,904.1,359.9,938.1z"/>
	<path class="st2" d="M359.1,576.5c0-31.1,0-62.2,0-93.1c2.4-0.6,11.1-0.7,14.3-0.1c0,31,0,61.9,0,93.2
		C368.7,576.5,364.1,576.5,359.1,576.5z"/>
	<path class="st2" d="M315.7,576.5c-4.9,0-9.4,0-14.3,0c0-31.1,0-62,0-93.6c4.7,0,9.4,0,14.3,0C315.7,514.3,315.7,545.3,315.7,576.5
		z"/>
	<path class="st2" d="M243.9,483.3c4.9,0,9.4,0,14.3,0c0,31.1,0,62.2,0,93.1c-0.5,0.5-1,0.5-1.5,0.5c-4.2,0-8.3,0-12.6,0
		C243.9,545.6,243.9,514.5,243.9,483.3z"/>
	<path class="st1" d="M388.1,483.1c4.7,0,9.2,0,13.8,0c0.6,2,0.8,88.6,0.3,93.3c-4.6,0-9.2,0-14,0
		C388.1,545.6,388.1,514.5,388.1,483.1z"/>
	<path class="st1" d="M228.9,576.5c-4.7,0-9.3,0-14,0c0-31.1,0-62.2,0-93.6c2.4,0,4.7,0,7.1,0c2.2,0,4.4,0,6.9,0
		C228.9,514.3,228.9,545.3,228.9,576.5z"/>
	<path class="st1" d="M344.5,576.5c-4.9,0-9.3,0-14,0c0-31.1,0-62.2,0-93.4c4.7,0,9.3,0,14,0C344.5,514.3,344.5,545.3,344.5,576.5z"
		/>
	<path class="st1" d="M272.8,483.3c4.7,0,9.3,0,14.2,0c0,31.1,0,62.2,0,93.3c-4.7,0-9.3,0-14.2,0
		C272.8,545.6,272.8,514.5,272.8,483.3z"/>
	<path class="st2" d="M453,770.6c0.1,0.5,0.3,1.1-0.3,1.8c-0.5-0.6-0.8-1.1-0.8-1.8C452.2,770.4,452.6,770.6,453,770.6z"/>
</g>
</svg>
